<svg xmlns="http://www.w3.org/2000/svg"  viewBox="0 0 48 48"><linearGradient id="a4" x1="10.608" x2="35.821" y1="4.776" y2="40.968" gradientUnits="userSpaceOnUse"><stop offset="0" stop-color="#0d61a9"/><stop offset="1" stop-color="#16528c"/></linearGradient><path fill="url(#a)" d="M24 4C12.97 4 4 12.976 4 24s8.97 20 19.999 20C35.03 44 44 35.024 44 24S35.03 4 24 4z"/><path d="M24 43.001C13.521 43.001 4.995 34.477 4.995 24c0-10.476 8.525-18.999 19.004-18.999 10.48 0 19.006 8.523 19.006 18.999 0 10.477-8.526 19.001-19.005 19.001zm-3.222-4.35a15.017 15.017 0 0 0 7.207-.19l-3.676-10.072-3.531 10.262zM9.416 20.488A14.955 14.955 0 0 0 9.001 24c0 4.864 2.259 9.284 6.111 12.093L9.416 20.488zm29.337.801a19.614 19.614 0 0 1-.893 2.783l-3.829 11.082A15.055 15.055 0 0 0 39 24c0-.912-.083-1.818-.247-2.711zm-18.728 9.384 2.442-7.328-2.265-6.308a26.857 26.857 0 0 1-1.086-.112c-.854-.053-1.5-.783-1.47-1.694.03-.921.735-1.616 1.641-1.616l.222.014c1.825.125 3.188.188 4.051.188 1.606 0 4.162-.195 4.188-.197h.003c1.006 0 1.715.637 1.77 1.549.045.76-.455 1.633-1.473 1.757-.078.009-.294.034-.596.062l4.483 13.401.693-2.308c.786-2.016 1.177-3.647 1.177-4.888 0-1.386-.644-2.439-1.211-3.368a21.78 21.78 0 0 1-.327-.546l-.197-.318c-.778-1.26-1.511-2.449-1.511-3.931 0-1.329.831-2.61 2.067-3.307A15.037 15.037 0 0 0 24.001 9a14.93 14.93 0 0 0-10.948 4.751c1.342-.057 2.676-.159 2.693-.16l.134-.005a1.63 1.63 0 0 1 1.641 1.554c.045.76-.457 1.634-1.478 1.757-.068.008-.285.033-.592.062l4.574 13.714z" opacity=".05"/><path d="M24 42.501C13.796 42.501 5.495 34.202 5.495 24c0-10.2 8.301-18.499 18.504-18.499C34.203 5.501 42.505 13.8 42.505 24c0 10.202-8.301 18.501-18.505 18.501zm-3.874-3.492a15.532 15.532 0 0 0 8.512-.218l-4.343-11.898-4.169 12.116zM9.365 18.892A15.398 15.398 0 0 0 8.501 24c0 5.553 2.88 10.554 7.599 13.339L9.365 18.892zm29.257-.042c-.106 1.604-.502 3.227-1.225 5.036l-4.404 12.743A15.57 15.57 0 0 0 39.5 24c0-1.755-.3-3.5-.878-5.15zM20.026 32.253l2.971-8.915-2.433-6.775a26.669 26.669 0 0 1-1.384-.134c-.606-.039-1.055-.537-1.034-1.182.021-.646.512-1.132 1.141-1.132.119.005 2.741.202 4.272.202 1.636 0 4.2-.196 4.226-.198h.008c.714 0 1.191.455 1.229 1.081.033.545-.312 1.143-1.034 1.23-.028.003-.539.064-1.211.114l5.185 15.498 1.146-3.816c.8-2.048 1.198-3.728 1.198-5.032 0-1.527-.712-2.693-1.285-3.629-.114-.187-.223-.364-.32-.534l-.205-.332c-.739-1.197-1.437-2.328-1.437-3.669 0-1.431 1.13-2.757 2.557-3.191A15.43 15.43 0 0 0 24.001 8.5a15.536 15.536 0 0 0-12.074 5.785c1.621-.024 3.834-.194 3.858-.196l.094-.003c.624 0 1.104.456 1.142 1.083.033.546-.313 1.144-1.039 1.231-.027.003-.535.064-1.208.114l5.252 15.739z" opacity=".07"/><path fill="#fff" d="M23.999 6.001c-9.93 0-18.004 8.075-18.004 17.999S14.072 42.001 24 42.001c9.929 0 18.005-8.077 18.005-18.001S33.929 6.001 23.999 6.001zM8.001 24c0-2.324.497-4.521 1.384-6.512L17.019 38.4c-5.338-2.594-9.018-8.064-9.018-14.4zm16 16c-1.57 0-3.084-.226-4.52-.652l4.8-13.952 4.918 13.477c.033.077.078.149.118.22a16.073 16.073 0 0 1-5.316.907zm2.094-23.915c.962-.047 1.832-.152 1.832-.152.861-.104.757-1.373-.104-1.316 0 0-2.589.2-4.264.2-1.569 0-4.217-.2-4.217-.2-.86-.059-.96 1.26-.098 1.316 0 0 .818.106 1.679.152l2.603 7.248-3.5 10.501-5.931-17.778a28.671 28.671 0 0 0 1.828-.152c.866-.104.761-1.373-.099-1.316 0 0-2.595.2-4.264.2-.304 0-.383.035-.611-.039C13.848 10.666 18.612 8 24.001 8c4.167 0 7.96 1.584 10.804 4.198-.071-.002-.135-.008-.206-.008-1.57 0-3.041 1.375-3.041 2.84 0 1.315.763 2.423 1.576 3.752.607 1.062 1.67 2.435 1.67 4.412 0 1.375-.405 3.095-1.219 5.175l-1.599 5.326-5.891-17.61zm5.952 21.75L36.932 23.7c.913-2.286 1.219-4.109 1.219-5.737 0-.586-.037-1.135-.108-1.645A16 16 0 0 1 40 24a15.994 15.994 0 0 1-7.953 13.835z"/></svg>