<?xml version="1.0" standalone="no"?>
<!DOCTYPE svg PUBLIC "-//W3C//DTD SVG 20010904//EN"
 "http://www.w3.org/TR/2001/REC-SVG-20010904/DTD/svg10.dtd">
<svg version="1.0" xmlns="http://www.w3.org/2000/svg"
 width="1784.000000pt" height="1784.000000pt" viewBox="0 0 1784.000000 1784.000000"
 preserveAspectRatio="xMidYMid meet">
<metadata>
Created by potrace 1.14, written by Peter Selinger 2001-2017
</metadata>
<g transform="translate(0.000000,1784.000000) scale(0.100000,-0.100000)"
fill="#000000" stroke="none">
<path d="M450 12931 c-8 -5 -17 -8 -21 -5 -13 7 -137 -43 -182 -74 -39 -27
-127 -116 -127 -129 0 -3 -10 -19 -22 -36 -13 -18 -22 -33 -20 -35 1 -1 -5
-19 -13 -39 -9 -21 -17 -44 -19 -53 -2 -8 -6 -22 -9 -30 -25 -67 -27 -290 -27
-3893 l0 -3747 910 0 910 0 0 3065 0 3065 738 1 c405 0 744 1 752 1 8 0 74 0
145 -1 72 0 139 0 150 0 29 0 468 0 483 0 22 -1 172 0 185 0 6 1 224 1 482 0
259 0 500 0 536 0 70 1 188 -11 244 -25 6 -2 24 -6 40 -10 17 -4 37 -10 45
-13 8 -4 18 -5 23 -5 4 1 7 -2 7 -6 0 -5 6 -9 13 -9 7 0 44 -14 83 -32 107
-51 209 -169 229 -267 3 -16 9 -40 13 -54 8 -29 8 -236 0 -265 -3 -11 -11 -39
-17 -63 -7 -23 -28 -69 -47 -102 -51 -87 -169 -200 -208 -200 -8 0 -17 -4 -20
-9 -7 -10 -85 -36 -141 -46 -71 -13 -79 -14 -130 -20 -56 -7 -209 -17 -240
-16 -11 0 -40 0 -65 0 -25 0 -51 0 -57 0 -23 2 -141 2 -190 1 -61 -1 -108 2
-116 7 -6 4 -7 1 -2 -7 6 -9 2 -10 -16 -4 -13 4 -28 7 -34 6 -26 -3 -133 -3
-162 0 -17 2 -29 0 -27 -4 5 -8 -25 -4 -63 7 -6 2 -14 1 -17 -3 -8 -7 -113 -5
-126 3 -6 4 -10 2 -10 -3 0 -8 -63 -7 -86 2 -7 3 -15 2 -18 -1 -3 -3 -29 -5
-58 -4 -29 1 -59 2 -65 2 -7 0 -42 0 -78 0 -36 0 -73 -1 -82 -1 -61 -1 -108 2
-116 7 -6 4 -7 1 -2 -7 6 -9 2 -10 -16 -4 -13 4 -28 7 -34 6 -26 -3 -133 -3
-162 0 -17 2 -29 0 -27 -4 5 -8 -25 -4 -63 7 -6 2 -14 1 -17 -3 -8 -7 -113 -5
-126 3 -6 4 -10 2 -10 -3 0 -8 -63 -7 -86 2 -7 3 -15 2 -18 -1 -3 -3 -29 -5
-58 -4 -29 1 -59 2 -65 2 -7 0 -42 0 -78 0 -36 0 -73 -1 -82 -1 -61 -1 -108 2
-116 7 -6 4 -7 1 -2 -7 6 -9 2 -10 -16 -4 -13 4 -28 7 -34 6 -26 -3 -133 -3
-162 0 -17 2 -30 1 -28 -2 2 -4 -20 -5 -49 -2 l-52 4 -1 -961 0 -961 21 -1
c106 -4 219 -3 223 4 2 4 9 4 15 1 13 -8 1416 -9 1424 -1 3 3 16 3 28 -1 18
-6 432 -8 454 -2 4 1 12 1 17 0 23 -6 445 -1 455 5 5 3 10 3 10 -2 0 -4 37 -8
83 -9 75 -1 116 -4 217 -20 51 -7 190 -54 220 -73 74 -48 130 -110 174 -192
20 -38 37 -72 38 -76 0 -5 2 -12 4 -18 25 -74 29 -231 8 -324 -24 -106 -124
-291 -157 -291 -6 0 -8 -3 -4 -6 12 -12 -72 -64 -173 -107 -44 -19 -118 -36
-240 -53 -25 -4 -668 -7 -1430 -8 l-1385 -1 -1 -948 -1 -948 1796 4 c988 2
1823 7 1856 10 33 3 94 8 135 12 76 5 154 13 200 20 14 3 47 7 73 10 69 8 266
54 291 67 12 6 21 10 21 8 0 -1 27 5 60 15 33 9 61 15 61 14 1 -2 11 5 23 15
12 11 21 16 21 13 0 -6 57 18 175 74 67 31 183 97 221 126 17 13 36 23 42 23
7 0 12 5 12 10 0 6 5 10 10 10 20 0 260 196 304 248 6 7 30 33 52 57 23 25 40
45 37 45 -2 0 2 6 9 13 7 8 22 26 33 41 11 16 25 33 30 40 6 6 22 29 35 51 13
22 27 42 30 45 8 6 120 206 120 214 0 3 13 33 29 68 51 110 129 341 147 433 2
11 10 54 19 95 8 41 17 98 20 125 3 28 8 66 11 85 10 60 12 432 3 505 -13 106
-23 171 -34 222 -3 13 -6 25 -6 28 0 2 -9 35 -20 72 -11 38 -22 75 -23 83 -9
36 -87 221 -123 290 -35 67 -139 237 -153 250 -3 3 -25 32 -50 65 -55 73 -83
106 -135 157 -46 46 -215 181 -215 173 0 -4 -7 1 -16 9 -8 9 -22 16 -30 16 -8
0 -14 4 -14 9 0 7 -255 137 -360 183 l-34 15 29 16 c17 9 45 23 63 32 17 8 57
31 87 50 30 19 57 35 60 35 3 0 11 5 18 10 7 6 53 38 102 73 118 83 125 88
226 187 113 112 208 231 245 310 4 8 10 17 14 20 16 12 122 244 150 330 18 52
36 104 41 115 10 24 26 86 34 134 3 19 7 37 9 40 6 9 19 90 30 181 14 117 16
140 15 285 0 131 -5 280 -9 280 -3 0 -9 41 -14 90 -3 28 -8 64 -12 80 -3 17
-7 39 -9 50 -6 36 -16 79 -27 120 -6 22 -11 45 -13 50 -1 6 -4 17 -7 25 -3 8
-18 53 -33 100 -27 86 -51 143 -86 213 -10 20 -17 37 -14 37 7 0 -104 190
-143 245 -107 150 -229 281 -363 389 -121 99 -455 278 -594 320 -11 3 -41 14
-65 24 -8 3 -19 7 -25 8 -5 1 -12 3 -15 4 -3 1 -12 3 -20 5 -8 2 -30 8 -47 14
-18 5 -33 7 -33 4 0 -3 -6 -1 -13 5 -7 6 -34 13 -61 17 -27 3 -51 7 -55 9 -6
4 -48 11 -113 20 -56 8 -139 16 -233 21 -49 3 -119 8 -155 10 -36 3 -117 8
-180 11 -192 11 -5483 15 -5500 5z"/>
<path d="M9049 12933 c-3 -27 -4 -8020 -1 -8030 3 -10 232 -13 1101 -13 l1096
0 -1 3062 c0 1685 3 3065 7 3068 10 7 3572 3 3649 -4 36 -3 76 -8 90 -10 14
-2 45 -7 69 -10 24 -4 47 -9 51 -11 4 -2 22 -7 41 -10 51 -8 189 -63 189 -74
0 -4 13 -12 29 -19 34 -15 72 -50 122 -112 64 -79 111 -190 129 -305 10 -62
14 -110 24 -298 1 -27 -1 -50 -6 -53 -4 -3 -4 -15 0 -27 5 -12 8 -1185 7
-2608 l-1 -2585 1096 0 1095 1 0 2790 c0 2444 -3 2887 -21 3080 -2 22 -6 63
-8 90 -13 131 -65 417 -95 513 -5 18 -10 33 -10 35 1 8 -14 65 -21 82 -5 11
-19 49 -31 85 -12 36 -26 70 -31 76 -4 6 -5 14 -1 17 3 4 0 7 -7 7 -7 0 -11 3
-8 6 7 6 -64 155 -92 194 -10 14 -19 30 -20 35 -6 24 -142 221 -200 290 -66
79 -290 292 -290 277 0 -4 -4 -2 -8 3 -13 19 -136 105 -149 105 -7 0 -13 4
-13 9 0 5 -10 13 -22 17 -13 4 -25 10 -28 13 -14 18 -304 146 -351 155 -8 1
-32 8 -55 14 -22 7 -65 17 -95 23 -30 6 -65 13 -79 15 -14 3 -38 7 -55 9 -16
1 -37 5 -45 8 -8 3 -37 8 -65 12 -27 3 -63 8 -80 11 -60 9 -91 14 -135 19 -25
3 -58 7 -75 9 -29 5 -129 15 -210 21 -22 2 -40 4 -40 5 0 14 -6444 27 -6446
13z"/>
<path d="M12435 9842 c-3 -3 -5 -1118 -5 -2479 l0 -2473 1020 0 c809 0 1020 3
1020 13 1 14 1 4879 0 4918 l0 26 -1015 0 c-558 0 -1017 -3 -1020 -5z"/>
</g>
</svg>
